<svg xmlns="http://www.w3.org/2000/svg" x="0px" y="0px" width="100" height="100" viewBox="0 0 48 48">
<path fill="#FFC107" d="M43.611,20.083H42V20H24v8h11.303c-1.649,4.657-6.08,8-11.303,8c-6.627,0-12-5.373-12-12c0-6.627,5.373-12,12-12c3.059,0,5.842,1.154,8,3.029V10.18c-3.461-3.334-8.357-5.365-14-5.365C11.042,4.815,4.815,11.042,4.815,24c0,12.958,6.227,19.185,19.185,19.185c9.345,0,17.17-6.443,19.044-15.163C43.844,27.943,44.495,24.586,43.611,20.083z"></path><path fill="#FF3D00" d="M6.306,14.691l6.571,4.819C14.655,15.108,18.961,12,24,12c3.059,0,5.842,1.154,8,3.029V10.18C28.536,6.815,23.844,4.815,19,4.815C11.042,4.815,4.815,11.042,4.815,24c0,3.461,1.154,6.692,3.029,9.29L12.18,27.47C9.594,24.692,7.98,21.539,6.306,14.691z"></path><path fill="#4CAF50" d="M24,44c5.166,0,9.86-1.977,13.409-5.192l-6.19-5.238C29.211,35.091,26.715,36,24,36c-5.202,0-9.619-3.317-11.283-7.946l-6.522,4.803C9.505,39.559,16.227,44,24,44z"></path><path fill="#1976D2" d="M43.611,20.083H42V20H24v8h11.303c-0.792,2.237-2.231,4.117-4.087,5.571c0.001-0.001,0.002-0.002,0.003-0.003l6.19,5.238C36.971,39.205,44.495,24.586,43.611,20.083z"></path>
</svg>